<svg width="399" height="302" viewBox="0 0 399 302" fill="none" xmlns="http://www.w3.org/2000/svg">
<circle cx="355.021" cy="43.7872" r="43.7872" fill="#131722"/>
<path d="M375.973 25.2309L368.943 28.8125L334.996 46.1031C334.881 45.2277 334.824 44.3456 334.823 43.4626C334.828 39.9395 335.753 36.4787 337.507 33.4231C339.26 30.3675 341.782 27.823 344.822 26.0418C347.861 24.2605 351.313 23.3043 354.836 23.2677C358.359 23.2312 361.831 24.1157 364.907 25.8336L368.93 23.7834L369.531 23.4771C365.845 20.8018 361.491 19.1976 356.95 18.842C352.409 18.4864 347.859 19.3932 343.801 21.4621C339.743 23.531 336.337 26.6815 333.958 30.5655C331.579 34.4494 330.32 38.9154 330.32 43.47C330.32 44.0991 330.344 44.7257 330.392 45.3498C330.459 46.2336 330.263 47.1174 329.829 47.8901C329.394 48.6628 328.741 49.2898 327.952 49.6922L325.83 50.7741V55.8205L332.077 52.6365L334.1 51.604L336.093 50.5888L371.88 32.3546L375.901 30.3069L384.213 26.0707V21.0268L375.973 25.2309Z" fill="white"/>
<path d="M384.213 31.1182L338.126 54.584L334.105 56.6366L325.83 60.8531V65.8945L334.048 61.7077L341.078 58.1261L375.059 40.8108C375.173 41.6921 375.231 42.5799 375.232 43.4686C375.229 46.9958 374.305 50.4611 372.549 53.5204C370.794 56.5797 368.269 59.1268 365.225 60.9086C362.181 62.6904 358.724 63.6451 355.197 63.6778C351.67 63.7105 348.195 62.8202 345.119 61.0951L344.872 61.2261L340.51 63.4491C344.195 66.1246 348.548 67.7292 353.088 68.0857C357.628 68.4421 362.178 67.5366 366.236 65.4691C370.293 63.4016 373.7 60.2526 376.08 56.37C378.46 52.4875 379.721 48.0226 379.722 43.4686C379.722 42.8338 379.697 42.199 379.651 41.5716C379.584 40.6881 379.78 39.8045 380.213 39.0319C380.647 38.2594 381.299 37.6322 382.088 37.2292L384.213 36.1473V31.1182Z" fill="white"/>
<circle cx="43.7872" cy="43.7872" r="43.7872" fill="#131722"/>
<path d="M42.8281 59.6982V77.5126L64.6383 46.7119L42.8281 59.6982Z" fill="#3C3C3B"/>
<path d="M42.8277 6.25586L64.6379 42.5506L42.8277 55.5369L20.8511 42.5506" fill="#343434"/>
<path d="M42.8277 6.25586V32.5613L20.8511 42.5506L42.8277 6.25586ZM20.8511 46.7129L42.8277 59.6991V77.5135" fill="#8C8C8C"/>
<path d="M42.8281 32.5596V55.5352L64.6383 42.549" fill="#141414"/>
<path d="M20.8511 42.549L42.8277 32.5596V55.5352" fill="#393939"/>
<circle cx="198.787" cy="257.787" r="43.7872" fill="#131722"/>
<path d="M179.081 269.773C179.434 269.42 179.918 269.215 180.432 269.215H227.022C227.873 269.215 228.299 270.242 227.697 270.844L218.493 280.048C218.141 280.4 217.657 280.606 217.143 280.606H170.553C169.702 280.606 169.276 279.578 169.878 278.976L179.081 269.773Z" fill="url(#paint0_linear_3041_15507)"/>
<path d="M179.081 235.409C179.448 235.057 179.932 234.852 180.431 234.852H227.021C227.873 234.852 228.298 235.879 227.697 236.481L218.493 245.685C218.141 246.037 217.656 246.243 217.143 246.243H170.553C169.701 246.243 169.276 245.215 169.878 244.613L179.081 235.409Z" fill="url(#paint1_linear_3041_15507)"/>
<path d="M218.493 252.484C218.141 252.131 217.657 251.926 217.143 251.926H170.553C169.702 251.926 169.276 252.953 169.878 253.555L179.081 262.759C179.434 263.111 179.918 263.317 180.432 263.317H227.022C227.873 263.317 228.299 262.289 227.697 261.687L218.493 252.484Z" fill="url(#paint2_linear_3041_15507)"/>
<path d="M291.354 42.3536C291.549 42.1583 291.549 41.8417 291.354 41.6465L288.172 38.4645C287.976 38.2692 287.66 38.2692 287.464 38.4645C287.269 38.6597 287.269 38.9763 287.464 39.1716L290.293 42L287.464 44.8284C287.269 45.0237 287.269 45.3403 287.464 45.5355C287.66 45.7308 287.976 45.7308 288.172 45.5355L291.354 42.3536ZM108 42.5L291 42.5L291 41.5L108 41.5L108 42.5Z" fill="white"/>
<path d="M219.772 194.041C219.841 194.308 220.114 194.468 220.382 194.399L224.736 193.263C225.003 193.193 225.163 192.92 225.094 192.653C225.024 192.385 224.751 192.225 224.483 192.295L220.613 193.305L219.603 189.434C219.534 189.167 219.261 189.007 218.993 189.077C218.726 189.146 218.566 189.419 218.636 189.687L219.772 194.041ZM290.718 72.7257L219.824 193.662L220.687 194.168L291.58 73.2314L290.718 72.7257Z" fill="#FBFBFB"/>
<path d="M178.427 194.398C178.694 194.468 178.967 194.308 179.037 194.041L180.173 189.687C180.243 189.419 180.083 189.146 179.815 189.077C179.548 189.007 179.275 189.167 179.205 189.434L178.196 193.305L174.325 192.295C174.058 192.225 173.785 192.385 173.715 192.653C173.645 192.92 173.806 193.193 174.073 193.263L178.427 194.398ZM107.228 73.2314L178.122 194.168L178.985 193.662L108.091 72.7257L107.228 73.2314Z" fill="white"/>
<defs>
<linearGradient id="paint0_linear_3041_15507" x1="222.571" y1="229.353" x2="190.325" y2="291.114" gradientUnits="userSpaceOnUse">
<stop stop-color="#00FFA3"/>
<stop offset="1" stop-color="#DC1FFF"/>
</linearGradient>
<linearGradient id="paint1_linear_3041_15507" x1="208.472" y1="221.992" x2="176.226" y2="283.754" gradientUnits="userSpaceOnUse">
<stop stop-color="#00FFA3"/>
<stop offset="1" stop-color="#DC1FFF"/>
</linearGradient>
<linearGradient id="paint2_linear_3041_15507" x1="215.477" y1="225.652" x2="183.231" y2="287.413" gradientUnits="userSpaceOnUse">
<stop stop-color="#00FFA3"/>
<stop offset="1" stop-color="#DC1FFF"/>
</linearGradient>
</defs>
</svg>
