<svg width="139" height="23" viewBox="0 0 139 23" fill="none" xmlns="http://www.w3.org/2000/svg">
<path d="M15.6367 9.12018V18.4675C15.6367 19.2092 16.0344 19.7441 16.9753 20.2674C18.2233 20.9617 22.8166 22.4129 24.4731 22.9385C25.4466 23.2472 26.1981 22.3588 25.0625 21.0695C24.1155 19.9953 19.9428 15.4082 17.8085 13.1309C16.7424 11.9954 15.6367 11.0574 15.6367 9.12018Z" fill="url(#paint0_linear_17_73)"/>
<path d="M15.6367 18.4675V9.12016C15.6367 8.14034 16.177 6.9597 17.7336 6.08813C19.9469 4.85038 25.0726 1.89822 27.9764 0.456291C30.0309 -0.564218 30.7959 0.169996 28.9645 2.22968C27.6431 3.71528 21.2024 10.8786 18.3304 14.169C17.2262 15.4351 15.8614 16.6889 15.6367 18.4675Z" fill="url(#paint1_linear_17_73)"/>
<path d="M14.3636 18.4675V9.12016C14.3636 8.14034 13.8233 6.9597 12.2667 6.08813C10.0534 4.85038 4.92773 1.89822 2.02358 0.456291C-0.0309662 -0.564218 -0.795941 0.169996 1.03581 2.22968C2.35684 3.71528 8.79756 10.8786 11.6699 14.169C12.7741 15.4351 14.1408 16.6889 14.3636 18.4675Z" fill="url(#paint2_linear_17_73)"/>
<path d="M14.3636 9.12018V18.4675C14.3636 19.2092 13.9659 19.7441 13.0249 20.2674C11.7766 20.9617 7.18369 22.4129 5.52717 22.9385C4.55363 23.2472 3.80213 22.3588 4.93743 21.0695C5.88363 19.9953 10.0549 15.4082 12.1914 13.1309C13.2578 11.9954 14.3636 11.0574 14.3636 9.12018Z" fill="url(#paint3_linear_17_73)"/>
<path d="M52.1016 8.65918L52.1104 8.6416C52.1045 8.64746 52.1016 8.65332 52.1016 8.65918ZM50.6602 17H52.3477V8.05273C52.3477 7.67773 52.1719 7.41992 51.8203 7.2793C51.4688 7.13281 51.1611 7.19727 50.8975 7.47266L44.1738 14.3809L37.4502 7.47266C37.1807 7.19727 36.873 7.13281 36.5273 7.2793C36.1758 7.41992 36 7.67773 36 8.05273V17H37.6875V10.1357L43.5674 16.1826C43.7314 16.3525 43.9336 16.4375 44.1738 16.4375C44.4082 16.4375 44.6104 16.3525 44.7803 16.1826L50.6602 10.1357V17ZM59.6735 7.21777H57.986V14.3545C57.986 15.0869 58.2438 15.7109 58.7595 16.2266C59.2751 16.7422 59.8991 17 60.6315 17H70.9762C71.7087 17 72.3327 16.7422 72.8483 16.2266C73.3639 15.7109 73.6218 15.0869 73.6218 14.3545V7.21777H71.9343V14.3545C71.9343 14.6182 71.8405 14.8438 71.653 15.0312C71.4655 15.2188 71.2399 15.3125 70.9762 15.3125H60.6315C60.3679 15.3125 60.1423 15.2188 59.9548 15.0312C59.7673 14.8438 59.6735 14.6182 59.6735 14.3545V7.21777ZM94.2279 7.20898H81.8705C81.1732 7.20898 80.5521 7.42578 80.0072 7.85938C79.3392 8.38672 79.0052 9.12793 79.0052 10.083C79.0052 10.7861 79.2191 11.4072 79.6468 11.9463C80.18 12.6143 80.9212 12.9482 81.8705 12.9482H91.6263C91.7377 12.9541 91.849 12.9688 91.9603 12.9922C92.1068 13.0273 92.2357 13.0801 92.347 13.1504C92.6517 13.3496 92.8041 13.6777 92.8041 14.1348C92.8041 14.2461 92.7923 14.3545 92.7689 14.46C92.7337 14.6123 92.6781 14.7441 92.6019 14.8555C92.4027 15.1602 92.0775 15.3125 91.6263 15.3125H79.2689V17H91.6263C92.5814 17 93.3226 16.666 93.85 15.998C94.2777 15.4531 94.4916 14.832 94.4916 14.1348C94.4916 13.1797 94.1576 12.4385 93.4896 11.9111C92.9505 11.4775 92.3295 11.2607 91.6263 11.2607H81.8705C81.4193 11.2607 81.0941 11.1084 80.8949 10.8037C80.8187 10.6924 80.766 10.5605 80.7367 10.4082C80.7074 10.3027 80.6927 10.1914 80.6927 10.0742C80.6927 9.62305 80.8451 9.29785 81.1498 9.09863C81.267 9.02832 81.3988 8.97559 81.5453 8.94043C81.6507 8.91699 81.7621 8.90234 81.8793 8.89648H94.2279V7.20898ZM114.263 11.2607H101.554V7.21777H99.8662V17H101.554V12.9482H114.263V17H115.95V7.21777H114.263V11.2607ZM137.62 13.0098V11.3223H123.276V9.85449C123.276 9.59082 123.37 9.36523 123.557 9.17773C123.745 8.99023 123.97 8.89648 124.234 8.89648H137.62V7.20898H124.234C123.502 7.20898 122.878 7.46973 122.362 7.99121C121.846 8.50684 121.589 9.12793 121.589 9.85449V14.3545C121.589 15.0869 121.846 15.7109 122.362 16.2266C122.878 16.7422 123.502 17 124.234 17H137.62V15.3125H124.234C123.97 15.3125 123.745 15.2188 123.557 15.0312C123.37 14.8438 123.276 14.6182 123.276 14.3545V13.0098H137.62Z" fill="white"/>
<defs>
<linearGradient id="paint0_linear_17_73" x1="31.5189" y1="27.745" x2="17.8737" y2="16.4933" gradientUnits="userSpaceOnUse">
<stop stop-color="#0050BF"/>
<stop offset="0.19" stop-color="#0A67C7"/>
<stop offset="0.6" stop-color="#24A0DB"/>
<stop offset="1" stop-color="#41E0F2"/>
</linearGradient>
<linearGradient id="paint1_linear_17_73" x1="55364.1" y1="22974.8" x2="60251.1" y2="15929.3" gradientUnits="userSpaceOnUse">
<stop stop-color="#0050BF"/>
<stop offset="0.19" stop-color="#0A67C7"/>
<stop offset="0.6" stop-color="#24A0DB"/>
<stop offset="1" stop-color="#41E0F2"/>
</linearGradient>
<linearGradient id="paint2_linear_17_73" x1="87973.3" y1="-75.2127" x2="83086.4" y2="-7120.88" gradientUnits="userSpaceOnUse">
<stop stop-color="#DA518B"/>
<stop offset="0.19" stop-color="#DC728A"/>
<stop offset="0.6" stop-color="#B32A87"/>
<stop offset="1" stop-color="#C93C8A"/>
</linearGradient>
<linearGradient id="paint3_linear_17_73" x1="45563.8" y1="3777.23" x2="50285" y2="712.193" gradientUnits="userSpaceOnUse">
<stop stop-color="#DC698A"/>
<stop offset="0.1899" stop-color="#CC3E8A"/>
<stop offset="0.19" stop-color="#CA3D8A"/>
<stop offset="0.6" stop-color="#C43889"/>
<stop offset="1" stop-color="#C73A8A"/>
</linearGradient>
</defs>
</svg>
